<?xml version="1.0" encoding="UTF-8"?> <!-- Generator: Adobe Illustrator 24.0.0, SVG Export Plug-In . SVG Version: 6.00 Build 0) --> <svg xmlns="http://www.w3.org/2000/svg" xmlns:xlink="http://www.w3.org/1999/xlink" version="1.1" id="Ebene_2" x="0px" y="0px" viewBox="0 0 157.9 44.1" style="enable-background:new 0 0 157.9 44.1;" xml:space="preserve"> <path d="M0.6,43.7V0.4h8.3l13.1,26h0.2v-26h8.7v43.2h-8.2l-13.3-26H9.3v26H0.6z"></path> <path d="M55.5,43.7V25.4l-11.9-25h9.2l7,17.2H60l7-17.2h9.2l-11.9,25v18.3H55.5z"></path> <path d="M88.2,43.7V0.4h8.7v37h17.2v6.2H88.2z"></path> <path d="M123.6,43.7l13.5-43.2h7.2l13.5,43.2h-8.7l-2.6-9.3h-11.8l-2.6,9.3H123.6z M145.1,28.5l-4.3-15.7h-0.2l-4.3,15.7H145.1z"></path> </svg> 